<?xml version="1.0" standalone="no"?>
<!DOCTYPE svg PUBLIC "-//W3C//DTD SVG 20010904//EN"
 "http://www.w3.org/TR/2001/REC-SVG-20010904/DTD/svg10.dtd">
<svg xmlns="http://www.w3.org/2000/svg" version="1.0" viewBox="0 0 700 700">
  <path d="M363.8 86.5c-.1.1-3.9.6-8.3.9l-12 1.1c-2.2.3-6.9.7-10.5 1-6.6.5-12.9 1.1-23 2-3 .3-7.5.7-10 .9-18.1 1.5-21.5 1.9-21.8 2.1-.2.2-.3 22.8-.3 50.4V195l-2.2.1c-1.2 0-3.3.2-4.7.4-1.4.2-6.6.6-11.6.9-5 .4-9.9.8-11 1-1 .2-6.4.7-11.9 1.1-5.5.4-11.3.9-13 1.1-1.6.1-6.8.5-11.5.9s-9.1.8-9.8 1c-1 .4-1.2 10.6-1 48.6l.3 48.2 27.5 13.8 27.5 13.9 8.9-.6c4.9-.3 9.2-.5 9.5-.6.3 0 1.1 0 1.8.1.9.1 1.2 20.7 1.2 91.3 0 50.2.1 108.9.1 130.3v39l27.8 13.9c26.2 13.2 28 13.9 33.1 13.7 2.9-.2 6.1-.4 7.1-.6 1-.2 5.6-.6 10.2-1 4.5-.4 9.9-.8 11.8-1 1.9-.2 6.7-.6 10.5-.9 3.9-.4 9.3-.8 12-1.1 2.8-.2 7.3-.6 10-.9 2.8-.3 8.4-.8 12.5-1.1 4.1-.4 7.7-.8 8-1 .3-.2.5-66.3.5-146.9 0-129.5.2-146.7 1.5-147 .8-.3 5.8-.7 11-1.1 5.2-.3 10.6-.8 12-1 1.4-.2 6-.7 10.3-1 4.3-.3 9.5-.8 11.5-1 2-.1 7.8-.6 12.7-1 5-.4 9.9-.9 11-1 1.1-.1 3.2-.3 4.8-.4l2.7-.1v-96.8l-27.7-13.8-27.8-13.9-7 .3c-3.8.2-8.8.5-11 .5l-4 .2v-67l-27.3-13.6c-28.8-14.5-29.8-15-30.4-14.4z"/>
</svg>
